<?xml version="1.0" encoding="UTF-8"?>
<svg xmlns="http://www.w3.org/2000/svg" viewBox="0 0 918.04 732.74">
  <defs>
    <style>
      .cls-1 {
        fill: none;
        stroke: #006da4;
      }

      .cls-1, .cls-2 {
        stroke-miterlimit: 10;
        stroke-width: 21px;
      }

      .cls-2 {
        fill: #004d73;
        stroke: #004d73;
      }

      .cls-3 {
        fill: #006da4;
      }
    </style>
  </defs>
  <g id="Layer_2" data-name="Layer 2">
    <path class="cls-2" d="m253.2,620.21c-.87-2.51-1.65-5.07-2.37-7.65-3.06-1.92-5.29-5.19-6.04-8.72-1.65-.91-3.29-1.82-4.96-2.69-1.09-.38-2.11-.92-3.04-1.59-3.11-1.64-4.88-4.83-5.42-8.28-.22-1.05-.33-2.12-.28-3.18.03-.53.1-1.04.19-1.55-.08-.09-.14-.19-.22-.28-.22-.17-.45-.35-.69-.52-3.92-.06-7.37-2.24-9.59-5.33-1.01-.53-1.95-1.19-2.78-1.97-.87-.51-1.69-1.13-2.43-1.84-3.22-.03-6.11-1.5-8.28-3.73-16.74-2.17-33.38-8.89-48.33-15.48-4.87-2.15-9.68-4.4-14.46-6.72-.83.15-1.68.22-2.55.22-.54,0-1.06-.05-1.58-.13-.61.08-1.22.13-1.84.13-3.11,0-5.93-1.35-8.09-3.43-2.79-.02-5.33-1.13-7.38-2.87,0,0-.01,0-.02,0-.17,0-.34.02-.52.02-1.97,0-3.82-.55-5.47-1.48-.85-.37-1.66-.83-2.4-1.38-.04,0-.08,0-.13,0-1.34,0-2.63-.26-3.83-.71-.62.08-1.25.14-1.88.14-3.66,0-6.92-1.87-9.16-4.6-2.36-.13-4.55-1.03-6.37-2.43-.51-.09-1-.21-1.49-.36,33.94,59.99,106.69,66.17,161.38,86.91,0-.17.01-.33.02-.5Z"/>
    <path class="cls-2" d="m907.36,432.54v-195.71c0-64.3-35.56-120.29-88.09-149.38.43.83.78,1.7,1.03,2.59,1.91,1.51,3.35,3.54,4.18,5.88,6.15,4.35,11.12,10.23,14.76,17.06,10.23,19.18,11.07,42.9,10.76,64.14-.18,11.93-1.13,23.8-2.18,35.66,3.6,2.55,5.81,7.05,5.81,11.54v18c0,2.74-.99,5.15-2.57,7.11v5.75c0,3.11-1.53,5.98-3.58,8.24-.51,5.84-1.11,11.68-1.78,17.51.8,10.65,1.09,21.33.72,32-.07,2.01-.17,4.02-.29,6.03,1.57,2.12,2.5,4.88,2.35,8.23-.95,21.36,1.28,42.62,1.14,63.97-.06,8.88-.75,17.81-2.3,26.58,1.61,2.26,2.48,4.95,2.01,7.74-.32,1.93-.7,3.84-1.09,5.75.32.71.6,1.44.81,2.2,6.1,22.36-5.64,41.23-16.46,59.7.6,2.37.58,4.89-.19,7.2-3.21,9.62-6.87,18.65-13.92,26.13-3.93,4.16-10.2,4.07-14.93,1.55-3.6,2.63-7.4,4.93-11.4,6.88-1.62,2.56-4.22,4.45-7.86,4.89-9.92,1.19-19.57,3.6-29.18,6.2-2.56,2.73-6.3,4.35-10.29,4.37-2.09,0-4.18.05-6.27.11-7.8,2.02-15.65,3.79-23.68,4.75-3.14.38-6.24-.1-8.86-1.4-3.13.43-6.28.79-9.45,1.1-38.72,6.51-76.84,18.15-115.74,22.53-33.19,8.58-66.38,17.12-99.96,24.06-.03,0-.05,0-.08.01-19.58,5.65-39.23,11.43-59,16.58-1.85,5.33-7.15,8.96-12.97,8.83-9.64-.22-19.03,1.59-28.37,3.74-1.09,1.32-2.53,2.41-4.41,3.12-7.11,2.71-14.35,4.31-21.68,5.05-2.42,3.94-6.94,6.38-11.83,6.38-.55,0-1.09-.04-1.62-.12-.59.07-1.19.12-1.8.12-1.19,0-2.33-.21-3.42-.57-3.31,4.54-6.91,8.88-10.92,12.96-4.93,5.03-13.75,3.71-18.54-.99,10.79,14.83,16.78,34.59,15.63,62.08l392-111c207,6,193.5-80.9,193.5-175.14Z"/>
  </g>
  <g id="Layer_3" data-name="Layer 3">
    <path class="cls-1" d="m652,552l-392,111c7-167-249-49-249-270l-.5-211.86C10.5,86.9,86.9,10.5,181.14,10.5h493.71c94.24,0,170.64,76.4,170.64,170.64v195.71c0,94.24,13.5,181.14-193.5,175.14Z"/>
    <ellipse class="cls-3" cx="227.86" cy="328.7" rx="55.36" ry="55.07"/>
    <ellipse class="cls-3" cx="629.34" cy="328.7" rx="55.36" ry="55.07"/>
    <ellipse class="cls-3" cx="434.94" cy="218.57" rx="55.36" ry="55.07"/>
  </g>
</svg>